<?xml version="1.0" encoding="utf-8"?>
<!-- Svg Vector Icons : http://www.onlinewebfonts.com/icon -->
<!DOCTYPE svg PUBLIC "-//W3C//DTD SVG 1.1//EN" "http://www.w3.org/Graphics/SVG/1.1/DTD/svg11.dtd">
<svg version="1.1" xmlns="http://www.w3.org/2000/svg" xmlns:xlink="http://www.w3.org/1999/xlink" x="0px" y="0px" viewBox="0 0 1000 1000" enable-background="new 0 0 1000 1000" xml:space="preserve">
<metadata> Svg Vector Icons : http://www.onlinewebfonts.com/icon </metadata>
<g><path d="M500,10C229.4,10,10,229.4,10,500s219.4,490,490,490c270.6,0,490-219.4,490-490S770.6,10,500,10L500,10z M728.5,534.3H534.3v194.3c0,18.9-15.3,34.3-34.3,34.3c-18.9,0-34.3-15.3-34.3-34.3V534.3H271.5c-18.9,0-34.3-15.3-34.3-34.3c0-18.9,15.3-34.3,34.3-34.3h194.3V271.5c0-18.9,15.3-34.3,34.3-34.3c18.9,0,34.3,15.3,34.3,34.3v194.3h194.3c18.9,0,34.3,15.4,34.3,34.3C762.8,518.9,747.5,534.3,728.5,534.3L728.5,534.3z"/></g>
</svg>